<svg width="36" height="36" viewBox="0 0 36 36" fill="none" xmlns="http://www.w3.org/2000/svg">
<path d="M11.9422 27.2165L11.7705 10.4466C11.7375 7.22384 14.3211 4.58684 17.5439 4.55386C20.7666 4.52088 23.4036 7.10444 23.4366 10.3272L23.6231 28.5554C23.6437 30.5678 22.0272 32.2178 20.0148 32.2384C18.0024 32.259 16.3524 30.6424 16.3318 28.63L16.1751 13.3183C16.1669 12.5163 16.8164 11.8534 17.6185 11.8451C18.4205 11.8369 19.0835 12.4864 19.0917 13.2885L19.2334 27.1419L21.4208 27.1195L21.279 13.2661C21.2584 11.2537 19.6085 9.63716 17.5961 9.65776C15.5837 9.67836 13.9672 11.3283 13.9878 13.3407L14.1445 28.6524C14.1774 31.8752 16.8144 34.4587 20.0372 34.4257C23.2599 34.3928 25.8435 31.7558 25.8105 28.533L25.624 10.3048C25.5786 5.87171 21.9546 2.32111 17.5215 2.36648C13.0884 2.41184 9.53777 6.03587 9.58314 10.469L9.75477 27.2389L11.9422 27.2165Z" fill="#B4B4B4"/>
</svg>
