<svg width="28" height="28" viewBox="0 0 28 28" fill="none" xmlns="http://www.w3.org/2000/svg">
<path d="M14 2.33333C7.56001 2.33333 2.33334 7.56 2.33334 14C2.33334 20.44 7.56001 25.6667 14 25.6667C20.44 25.6667 25.6667 20.44 25.6667 14C25.6667 7.56 20.44 2.33333 14 2.33333ZM4.66668 14C4.66668 8.84333 8.84334 4.66666 14 4.66666C16.1583 4.66666 18.1417 5.40166 19.7167 6.63833L6.63834 19.7167C5.40168 18.1417 4.66668 16.1583 4.66668 14ZM14 23.3333C11.8417 23.3333 9.85834 22.5983 8.28334 21.3617L21.3617 8.28333C22.5983 9.85833 23.3333 11.8417 23.3333 14C23.3333 19.1567 19.1567 23.3333 14 23.3333Z" fill="#C4C4C4"/>
</svg>
