<svg width="33" height="33" viewBox="0 0 33 33" fill="none" xmlns="http://www.w3.org/2000/svg">
<path d="M16.5 2.75C8.89625 2.75 2.75 8.89625 2.75 16.5C2.75 24.1038 8.89625 30.25 16.5 30.25C24.1038 30.25 30.25 24.1038 30.25 16.5C30.25 8.89625 24.1038 2.75 16.5 2.75ZM16.5 27.5C10.4363 27.5 5.5 22.5638 5.5 16.5C5.5 10.4363 10.4363 5.5 16.5 5.5C22.5638 5.5 27.5 10.4363 27.5 16.5C27.5 22.5638 22.5638 27.5 16.5 27.5Z" fill="#C4C4C4"/>
<path d="M22.25 11.8075L21.1925 10.75L17 14.9425L12.8075 10.75L11.75 11.8075L15.9425 16L11.75 20.1925L12.8075 21.25L17 17.0575L21.1925 21.25L22.25 20.1925L18.0575 16L22.25 11.8075Z" fill="#C4C4C4"/>
</svg>
