<svg width="28" height="28" viewBox="0 0 28 28" fill="none" xmlns="http://www.w3.org/2000/svg">
<path d="M12.8333 17.5H15.1667V19.8333H12.8333V17.5ZM12.8333 8.16667H15.1667V15.1667H12.8333V8.16667ZM13.9883 2.33334C7.54834 2.33334 2.33334 7.56 2.33334 14C2.33334 20.44 7.54834 25.6667 13.9883 25.6667C20.44 25.6667 25.6667 20.44 25.6667 14C25.6667 7.56 20.44 2.33334 13.9883 2.33334ZM14 23.3333C8.84334 23.3333 4.66668 19.1567 4.66668 14C4.66668 8.84334 8.84334 4.66667 14 4.66667C19.1567 4.66667 23.3333 8.84334 23.3333 14C23.3333 19.1567 19.1567 23.3333 14 23.3333Z" fill="#C4C4C4"/>
</svg>
