<svg width="28" height="28" viewBox="0 0 28 28" fill="none" xmlns="http://www.w3.org/2000/svg">
<path d="M5.06334 3.41833L3.41833 5.06334L8.505 10.15L8.16667 10.5H3.5V17.5H8.16667L14 23.3333V15.645L18.8767 20.5217C18.1183 21.0933 17.2667 21.5483 16.3333 21.8167V24.22C17.8967 23.87 19.3317 23.1467 20.545 22.1783L22.9367 24.57L24.5817 22.925L5.06334 3.41833ZM11.6667 17.6983L9.135 15.1667H5.83333V12.8333H9.135L10.1617 11.8067L11.6667 13.3117V17.6983ZM22.1667 14C22.1667 14.9567 21.9917 15.8783 21.6883 16.73L23.4733 18.515C24.1267 17.15 24.5 15.6217 24.5 14C24.5 9.00667 21.0117 4.83 16.3333 3.76833V6.17167C19.705 7.175 22.1667 10.3017 22.1667 14ZM14 4.66667L11.8067 6.86L14 9.05333V4.66667ZM19.25 14C19.25 11.935 18.06 10.1617 16.3333 9.29833V11.3867L19.2267 14.28C19.2383 14.1867 19.25 14.0933 19.25 14Z" fill="#C4C4C4"/>
</svg>
